<?xml version="1.0" encoding="UTF-8" standalone="no"?>
<!-- Created with Inkscape (http://www.inkscape.org/) -->

<svg
   xmlns:dc="http://purl.org/dc/elements/1.1/"
   xmlns:cc="http://creativecommons.org/ns#"
   xmlns:rdf="http://www.w3.org/1999/02/22-rdf-syntax-ns#"
   xmlns:svg="http://www.w3.org/2000/svg"
   xmlns="http://www.w3.org/2000/svg"
   xmlns:xlink="http://www.w3.org/1999/xlink"
   xmlns:sodipodi="http://sodipodi.sourceforge.net/DTD/sodipodi-0.dtd"
   xmlns:inkscape="http://www.inkscape.org/namespaces/inkscape"
   version="1.0"
   width="742.03448"
   height="447.53867"
   id="svg1961"
   inkscape:version="0.48.2 r9819"
   sodipodi:docname="nautilus_log.svg">
  <metadata
     id="metadata43">
    <rdf:RDF>
      <cc:Work
         rdf:about="">
        <dc:format>image/svg+xml</dc:format>
        <dc:type
           rdf:resource="http://purl.org/dc/dcmitype/StillImage" />
        <dc:title></dc:title>
      </cc:Work>
    </rdf:RDF>
  </metadata>
  <sodipodi:namedview
     pagecolor="#ffffff"
     bordercolor="#666666"
     borderopacity="1"
     objecttolerance="10"
     gridtolerance="10"
     guidetolerance="10"
     inkscape:pageopacity="0"
     inkscape:pageshadow="2"
     inkscape:window-width="640"
     inkscape:window-height="480"
     id="namedview41"
     showgrid="false"
     inkscape:zoom="0.76617349"
     inkscape:cx="378.41871"
     inkscape:cy="248.01293"
     inkscape:current-layer="svg1961"
     inkscape:object-paths="false"
     inkscape:snap-global="true"
     fit-margin-top="0"
     fit-margin-left="0"
     fit-margin-right="0"
     fit-margin-bottom="0"
     inkscape:object-nodes="true" />
  <defs
     id="defs1963" />
  <g
     id="g4031"
     transform="translate(0,-209.21505)">
    <path
       inkscape:connector-curvature="0"
       id="rect12934"
       style="fill:#ffffff;stroke:#000000"
       d="m 647.39263,412.14457 -0.51645,-143.22812 c -0.0109,-3.02019 -0.72428,-5.44906 -1.59953,-5.4459 l -35.28119,0.1689 c -0.87525,0.003 -30.56633,57.47964 -30.55544,60.49983 -10e-6,13.28156 -0.36121,36.00345 -0.36121,36.00345 0.0109,3.02019 30.59718,57.63119 31.47242,57.62804 l 35.28119,-0.1689 c 0.87525,-0.003 1.5711,-2.43711 1.56021,-5.4573 z" />
    <path
       inkscape:connector-curvature="0"
       id="rect12929"
       style="fill:none;stroke:#000000"
       d="m 386.88924,213.90726 c -2.17916,-2.84233 -1.76536,-2.53075 -5.37727,-3.64017 -3.61191,-1.10942 -89.79816,-0.26959 -93.29333,0.12839 -3.13835,0.35735 -4.09716,3.11796 -4.3541,5.51178 -0.25828,2.40632 0,61.83818 0,61.83818 l 124.01529,0 c 0,0 -19.13217,-61.4142 -20.99059,-63.83818 z" />
    <path
       sodipodi:nodetypes="ssssszczs"
       inkscape:connector-curvature="0"
       id="rect12926"
       style="fill:#ffffff;stroke:#000000"
       d="m 445.71798,276.68803 -298.35055,1.0963 C 63.33335,278.09312 0.5,304.93264 0.5,340.01676 c 0,35.08411 62.83335,64.73379 146.86743,64.42501 l 298.35055,-1.09628 c 14.38851,-0.0529 121.92597,-11.44615 169.40094,-28.72563 47.47497,-17.27948 126.45493,-31.8816 126.41557,-34.04105 -0.037,-2.03178 -81.86061,-19.02838 -126.41557,-35.24507 -44.55496,-16.21668 -153.44946,-28.70432 -169.40094,-28.64571 z" />
    <path
       inkscape:connector-curvature="0"
       id="rect1906"
       style="fill:none;stroke:#000000"
       d="m 620.82829,338.04322 c 0,0 -29.4225,-1.10053 -37.37533,-0.90303 -7.95283,0.19749 -8.56446,1.60769 -8.56446,2.48297 0,0.87529 0.61163,2.28548 8.56446,2.48297 7.95283,0.1975 37.37533,-0.90303 37.37533,-0.90303 1.42071,0 26.56447,-0.70465 26.56447,-1.57994 0,-0.87528 -25.14376,-1.57994 -26.56447,-1.57994 z" />
    <path
       inkscape:connector-curvature="0"
       id="path2834"
       style="fill:none;stroke:#000000"
       d="m 343.11322,241.3226 c 0,0 -16.25918,-1.10053 -20.65399,-0.90303 -4.39482,0.19749 -4.73281,1.60769 -4.73281,2.48297 0,0.87529 0.33799,2.28548 4.73281,2.48297 4.39481,0.1975 20.65399,-0.90303 20.65399,-0.90303 0.7851,0 14.67979,-0.70465 14.67979,-1.57994 0,-0.87528 -13.89469,-1.57994 -14.67979,-1.57994 z" />
    <g
       transform="matrix(-0.25390769,0,0,0.25390769,963.89993,300.29372)"
       id="g3108">
      <path
         style="fill:#ffffff;stroke:#000000;stroke-width:3.93843913;stroke-linecap:round;stroke-linejoin:round;stroke-miterlimit:4;stroke-opacity:1;stroke-dasharray:none;stroke-dashoffset:0"
         d="M 1056.7283,124.16966 C 1035.4201,85.186958 987.02434,-9.181504 953.644,-9.181504 c -33.45799,0 4.56121,115.864314 11.94733,133.351164"
         id="path3100"
         inkscape:connector-curvature="0"
         sodipodi:nodetypes="csc" />
      <path
         style="fill:#ffffff;stroke:#000000;stroke-width:3.93843913;stroke-linecap:round;stroke-linejoin:round;stroke-miterlimit:4;stroke-opacity:1;stroke-dasharray:none;stroke-dashoffset:0"
         d="m 967.10605,193.38768 c -16.3208,40.54857 -25.06823,47.52082 -28.69002,47.52082 -7.34326,0 13.51656,-29.87082 19.2712,-47.52082"
         id="path3106"
         inkscape:connector-curvature="0"
         sodipodi:nodetypes="csc" />
      <path
         sodipodi:nodetypes="csc"
         inkscape:connector-curvature="0"
         id="path3102"
         d="m 1059.7278,193.38768 c -16.3208,40.54857 -74.78001,132.88971 -111.39052,132.88971 -33.45799,0 9.06038,-115.40286 16.4465,-132.88971"
         style="fill:#ffffff;stroke:#000000;stroke-width:3.93843913;stroke-linecap:round;stroke-linejoin:round;stroke-miterlimit:4;stroke-opacity:1;stroke-dasharray:none;stroke-dashoffset:0" />
      <rect
         style="fill:#ffffff;stroke:#000000;stroke-width:3.93843913;stroke-linecap:round;stroke-linejoin:round;stroke-miterlimit:4;stroke-opacity:1;stroke-dasharray:none;stroke-dashoffset:0"
         id="rect3098"
         width="119.05499"
         height="69.218018"
         x="951.05554"
         y="124.16966"
         rx="0.18616588"
         ry="0.2516669" />
      <path
         style="fill:#ffffff;stroke:#000000;stroke-width:3.93843913;stroke-linecap:round;stroke-linejoin:round;stroke-miterlimit:4;stroke-opacity:1;stroke-dasharray:none;stroke-dashoffset:0"
         d="m 1063.1887,183.92788 c -9.8797,11.57353 -17.3313,26.7643 -38.5313,26.7643 -42.67496,0 -67.52604,-96.28995 -89.75273,-136.820945 81.04483,104.375505 84.46843,49.413725 128.28403,110.056645 z"
         id="path3104"
         inkscape:connector-curvature="0"
         sodipodi:nodetypes="cscc" />
    </g>
  </g>
  <g
     id="g4026"
     transform="translate(-193.81044,-25.841392)">
    <path
       inkscape:connector-curvature="0"
       id="path3915"
       d="m 384.30024,308.03279 c 0,2.19266 -1.7775,3.97016 -3.97016,3.97016 -2.19266,0 -3.97017,-1.7775 -3.97017,-3.97016 0,-2.19266 1.77751,-3.97016 3.97017,-3.97016 2.19266,0 3.97016,1.7775 3.97016,3.97016 z"
       style="fill:#000000;stroke:#000000" />
    <path
       inkscape:connector-curvature="0"
       id="path3913"
       d="m 361.75997,308.54507 c 0,2.19266 -1.7775,3.97016 -3.97016,3.97016 -2.19266,0 -3.97017,-1.7775 -3.97017,-3.97016 0,-2.19266 1.77751,-3.97016 3.97017,-3.97016 2.19266,0 3.97016,1.7775 3.97016,3.97016 z"
       style="fill:#000000;stroke:#000000" />
    <path
       inkscape:connector-curvature="0"
       d="m 380.19597,291.63131 c -9.33532,0 -6.88219,33.23234 -1.06028,33.23234 7.85954,0 12.71305,-33.23234 1.06028,-33.23234 z m -23.33721,1.03207 c -9.82531,0 -5.64365,31.29922 -0.22077,31.29922 10.53428,0 13.17826,-31.29922 0.22077,-31.29922 z m 63.24806,162.60612 c 0,4.05839 -9.26024,9.82546 -24.69258,9.82546 -15.65099,0 -24.9218,-14.02349 -29.25089,-28.93232 -4.24972,-14.63547 -3.60696,-30.16133 -13.38901,-30.16133 -7.32559,0 -10.0905,24.17664 -22.05474,44.89931 -15.75739,27.29259 -61.97914,23.16823 -61.97914,18.83718 0,-9.41176 43.70928,10.95456 60.44023,-29.4703 2.68703,-6.49234 24.37245,-42.78902 12.17185,-42.78902 -11.93143,0 -28.45494,42.20926 -61.81337,42.20926 -27.44586,0 -37.332,-21.38625 -32.15083,-21.38625 5.57695,0 11.69232,16.53464 32.50995,16.53464 22.39274,0 68.75809,-51.73677 58.2275,-51.73677 -17.09454,0 -53.2098,35.14369 -71.00181,35.14369 -20.67407,0 -30.74004,-19.59591 -24.77854,-19.59591 5.15107,0 9.91004,15.22904 23.38136,15.22904 8.53019,0 25.64036,-11.82954 40.89691,-21.11562 13.27787,-8.08174 25.45929,-13.53405 25.45929,-16.49861 0,-5.22395 -29.96424,3.6252 -45.2385,3.6252 -15.59192,0 -35.94393,-8.68294 -35.94393,-36.06015 0,-28.50445 29.46379,-30.21616 29.46379,-20.41094 0,8.45667 -23.43462,-10.9516 -23.43462,19.8068 0,38.16607 31.88192,32.09079 56.88334,28.59559 17.42221,-2.43562 40.36437,-8.10642 40.36437,-18.30544 0,-14.51131 -14.06468,-30.07817 -14.06468,-56.88141 0,-26.71769 17.72389,-33.63772 29.09496,-33.63772 17.18797,0 27.81786,10.68818 27.81786,28.95287 0,41.75208 -16.46338,56.18406 -16.46338,71.25318 0,18.4211 97.61997,19.78201 97.61997,-12.72595 0,0 -0.46695,-10.37613 -5.09933,-10.37613 -4.15051,0 -14.74221,12.56441 -14.74221,7.18666 0,-6.45995 9.16302,-11.01225 15.03243,-11.01225 3.56938,0 12.15378,-0.42774 12.15378,12.37329 0,18.21425 -26.18731,32.01765 -53.06862,32.47922 -40.82194,0.70093 -53.66468,-12.35249 -53.66468,-5.37424 0,18.20489 62.27051,35.03165 70.23187,35.03165 27.89105,0 3.03327,-25.18865 15.72595,-25.18865 11.01505,0 12.95621,29.95704 -12.83429,29.95704 -27.64531,0 -73.73829,-29.11768 -73.73829,-17.50849 0,30.83278 30.54816,42.63107 55.5835,42.63107 39.74976,0 38.98106,-21.8635 47.58465,-21.8635 10.96905,0 -12.32307,27.24689 -51.74855,27.24689 -58.67547,0 -45.87676,-42.34451 -61.09344,-42.34451 -10.28504,0 7.41531,56.14748 28.80316,56.14748 14.15013,0 22.79871,-10.71923 22.79871,-4.59001 z"
       style="fill:none;stroke:#000000"
       id="path3900" />
  </g>
  <g
     id="g3991"
     transform="matrix(-0.1612665,0,0,0.1612665,338.33299,340.49053)">
    <path
       id="path3934"
       d="m -269.96875,-268.65625 c -42.59698,0.80096 -81.62039,21.2588 -116.96875,55.96875 -77.04228,11.63283 -155.68974,61.51292 -227.71875,162.3125 83.5034,116.857186 175.88993,165.30577 264.375,165.03125 23.59348,23.38719 56.6768,42.15582 95.5625,42.15625 47.13036,5.2e-4 18.89081,-28.12772 -6.09375,-58.96875 C -204.01512,76.63202 -151.00737,36.394683 -105.65625,-16.875 -78.846867,1.9746748 -55.12303,20.6875 -24,20.6875 -37.767141,-6.23042 -36.46875,-39.268374 -36.46875,-53.125 c 0,-13.856626 -1.298391,-46.92583 12.46875,-73.84375 -32.275325,0 -56.602499,20.09271 -84.65625,39.625 -43.42481,-50.08488 -93.68368,-88.3156 -147.46875,-109.46875 21.69845,-9.45955 59.34609,-14.49707 125.0625,-9.53125 -49.83146,-44.14387 -96.1702,-63.11607 -138.90625,-62.3125 z"
       style="fill:#000000;stroke:none"
       inkscape:connector-curvature="0" />
    <path
       sodipodi:nodetypes="cc"
       inkscape:connector-curvature="0"
       id="path3943"
       d="m -433.63771,-200.90418 c 31.28211,106.022588 39.11481,207.2173554 -12.9033,296.089898"
       style="fill:none;stroke:#ffffff;stroke-width:10;stroke-linecap:round;stroke-linejoin:round;stroke-miterlimit:4;stroke-opacity:1;stroke-dasharray:none;stroke-dashoffset:0" />
    <path
       sodipodi:nodetypes="cc"
       inkscape:connector-curvature="0"
       id="path3945"
       d="m -612.11918,-53.894881 c 30.5927,23.017314 60.21984,45.9230389 93.67505,35.07046"
       style="fill:none;stroke:#ffffff;stroke-width:6;stroke-linecap:round;stroke-linejoin:round;stroke-miterlimit:4;stroke-opacity:1;stroke-dasharray:none;stroke-dashoffset:0" />
    <path
       transform="matrix(1.1983857,0,0,1.1983857,118.95302,39.253142)"
       d="m -495.13953,-104.8211 c 0,14.016956 -11.36299,25.379942 -25.37994,25.379942 -14.01695,0 -25.37994,-11.362986 -25.37994,-25.379942 0,-14.01695 11.36299,-25.37994 25.37994,-25.37994 14.01695,0 25.37994,11.36299 25.37994,25.37994 z"
       sodipodi:ry="25.37994"
       sodipodi:rx="25.37994"
       sodipodi:cy="-104.8211"
       sodipodi:cx="-520.51947"
       id="path3947"
       style="fill:#ffffff;stroke:none"
       sodipodi:type="arc" />
    <path
       sodipodi:type="arc"
       style="fill:#000000;stroke:none"
       id="path3958"
       sodipodi:cx="-520.51947"
       sodipodi:cy="-104.8211"
       sodipodi:rx="25.37994"
       sodipodi:ry="25.37994"
       d="m -495.13953,-104.8211 c 0,14.016956 -11.36299,25.379942 -25.37994,25.379942 -14.01695,0 -25.37994,-11.362986 -25.37994,-25.379942 0,-14.01695 11.36299,-25.37994 25.37994,-25.37994 14.01695,0 25.37994,11.36299 25.37994,25.37994 z"
       transform="matrix(0.63917551,0,0,0.63917551,-172.12677,-19.363884)" />
  </g>
  <g
     transform="matrix(-0.1612665,0,0,0.1612665,630.42953,509.26767)"
     id="g3998">
    <path
       id="path4000"
       d="m -269.96875,-857.47084 c -42.59698,0.80096 -81.62039,21.2588 -116.96875,55.96875 -77.04228,11.63283 -155.68974,61.51292 -227.71875,162.3125 83.5034,116.85719 175.88993,165.30577 264.375,165.03125 23.59348,23.38719 56.6768,42.15582 95.5625,42.15625 47.13036,5.2e-4 18.89081,-28.12772 -6.09375,-58.96875 56.79738,-21.21173 109.80513,-61.44907 155.15625,-114.71875 26.809383,18.84968 50.53322,37.5625 81.65625,37.5625 -13.767141,-26.91792 -12.46875,-59.95587 -12.46875,-73.8125 0,-13.85663 -1.298391,-46.92583 12.46875,-73.84375 -32.275325,0 -56.602499,20.09271 -84.65625,39.625 -43.42481,-50.08488 -93.68368,-88.3156 -147.46875,-109.46875 21.69845,-9.45955 59.34609,-14.49707 125.0625,-9.53125 -49.83146,-44.14387 -96.1702,-63.11607 -138.90625,-62.3125 z"
       style="fill:#ffffff;stroke:#000000"
       inkscape:connector-curvature="0" />
    <path
       inkscape:connector-curvature="0"
       style="font-size:medium;font-style:normal;font-variant:normal;font-weight:normal;font-stretch:normal;text-indent:0;text-align:start;text-decoration:none;line-height:normal;letter-spacing:normal;word-spacing:normal;text-transform:none;direction:ltr;block-progression:tb;writing-mode:lr-tb;text-anchor:start;baseline-shift:baseline;color:#000000;fill:#000000;fill-opacity:1;fill-rule:nonzero;stroke:none;stroke-width:10;marker:none;visibility:visible;display:inline;overflow:visible;enable-background:accumulate;font-family:Sans;-inkscape-font-specification:Sans"
       d="m -428.90625,-791.34375 c -3.13851,1.05112 -6.29916,2.18955 -9.4375,3.375 31.01716,105.28459 38.5164,204.65138 -12.5,291.8125 a 5.0005,5.0005 0 0 0 -0.28125,0.59375 c 3.0899,1.35044 6.18971,2.62597 9.28125,3.84375 52.5583,-90.33667 44.38926,-193.02051 13,-299.40625 a 5.0005,5.0005 0 0 0 -0.0625,-0.21875 z"
       id="path4002" />
    <path
       inkscape:connector-curvature="0"
       style="font-size:medium;font-style:normal;font-variant:normal;font-weight:normal;font-stretch:normal;text-indent:0;text-align:start;text-decoration:none;line-height:normal;letter-spacing:normal;word-spacing:normal;text-transform:none;direction:ltr;block-progression:tb;writing-mode:lr-tb;text-anchor:start;baseline-shift:baseline;color:#000000;fill:#000000;fill-opacity:1;fill-rule:nonzero;stroke:none;stroke-width:6;marker:none;visibility:visible;display:inline;overflow:visible;enable-background:accumulate;font-family:Sans;-inkscape-font-specification:Sans"
       d="m -610.34375,-645.125 c -1.17392,1.60412 -2.36077,3.21285 -3.53125,4.84375 15.26753,11.48741 30.43289,23.09411 46.25,30.53125 15.8361,7.44607 32.52965,10.66639 50.09375,4.96875 A 3.0043101,3.0043101 0 1 0 -519.375,-610.5 c -15.89111,5.15494 -30.72931,2.36048 -45.71875,-4.6875 -14.98944,-7.04798 -29.91214,-18.38988 -45.21875,-29.90625 a 3.0003,3.0003 0 0 0 -0.0312,-0.0312 z"
       id="path4004" />
    <path
       transform="matrix(1.1983857,0,0,1.1983857,118.95302,-549.56145)"
       d="m -495.13953,-104.8211 c 0,14.016956 -11.36299,25.379942 -25.37994,25.379942 -14.01695,0 -25.37994,-11.362986 -25.37994,-25.379942 0,-14.01695 11.36299,-25.37994 25.37994,-25.37994 14.01695,0 25.37994,11.36299 25.37994,25.37994 z"
       sodipodi:ry="25.37994"
       sodipodi:rx="25.37994"
       sodipodi:cy="-104.8211"
       sodipodi:cx="-520.51947"
       id="path4006"
       style="fill:#ffffff;stroke:#000000"
       sodipodi:type="arc" />
    <path
       sodipodi:type="arc"
       style="fill:#000000;stroke:#000000"
       id="path4008"
       sodipodi:cx="-520.51947"
       sodipodi:cy="-104.8211"
       sodipodi:rx="25.37994"
       sodipodi:ry="25.37994"
       d="m -495.13953,-104.8211 c 0,14.016956 -11.36299,25.379942 -25.37994,25.379942 -14.01695,0 -25.37994,-11.362986 -25.37994,-25.379942 0,-14.01695 11.36299,-25.37994 25.37994,-25.37994 14.01695,0 25.37994,11.36299 25.37994,25.37994 z"
       transform="matrix(0.63917551,0,0,0.63917551,-172.12677,-608.17847)" />
  </g>
  <use
     height="473.38007"
     width="742.03448"
     transform="translate(-109.35474,-48.276032)"
     id="use4024"
     xlink:href="#g3998"
     y="0"
     x="0" />
  <use
     x="0"
     y="0"
     xlink:href="#g3998"
     id="use4010"
     transform="translate(-10.160493,-120.50919)"
     width="742.03448"
     height="473.38007" />
</svg>
